<svg width="362" height="314" viewBox="0 0 362 314" fill="none" xmlns="http://www.w3.org/2000/svg">
<path d="M248.4 303.401H107.6V311.801H248.4V303.401Z" fill="#444E59"/>
<path d="M346.2 248.5H14C7.4 248.5 2 243.1 2 236.5V14C2 7.4 7.4 2 14 2H346.2C352.8 2 358.2 7.4 358.2 14V236.4C358.2 243.1 352.9 248.5 346.2 248.5Z" fill="#BBBFC2"/>
<path d="M337.087 206.28V24.579H24.487V206.28H337.087Z" fill="#A4E3DF"/>
<path d="M347.2 248.5H14.4C7.80002 248.5 2.40002 243.1 2.40002 236.5V14C2.40002 7.4 7.80002 2 14.4 2H347.2C353.8 2 359.2 7.4 359.2 14V236.4C359.2 243.1 353.8 248.5 347.2 248.5Z" stroke="#444E59" stroke-width="4" stroke-miterlimit="10" stroke-linecap="round" stroke-linejoin="round"/>
<path d="M336.685 206.278V24.578H24.985V206.278H336.685Z" stroke="#444E59" stroke-width="4" stroke-miterlimit="10" stroke-linecap="round" stroke-linejoin="round"/>
<path opacity="0.32" d="M276.1 197.501H104.3C100.4 197.501 97.3 194.301 97.3 190.501V67.901C97.3 64.001 100.5 60.901 104.3 60.901H276.1C280 60.901 283.1 64.101 283.1 67.901V190.401C283.1 194.301 280 197.501 276.1 197.501Z" fill="#848484"/>
<path d="M268.1 190.701H96.3C92.4 190.701 89.3 187.501 89.3 183.701V61.201C89.3 57.301 92.5 54.201 96.3 54.201H268.1C272 54.201 275.1 57.401 275.1 61.201V183.701C275.2 187.601 272 190.701 268.1 190.701Z" fill="#AFB1B2"/>
<path d="M268.1 190.701H96.3C92.4 190.701 89.3 187.501 89.3 183.701V61.201C89.3 57.301 92.5 54.201 96.3 54.201H268.1C272 54.201 275.1 57.401 275.1 61.201V183.701C275.2 187.601 272 190.701 268.1 190.701Z" stroke="#444E59" stroke-width="4" stroke-miterlimit="10" stroke-linecap="round" stroke-linejoin="round"/>
<path d="M222.7 303.4H138.9L149.3 248.5H212.3L222.7 303.4Z" fill="#AEAEAF"/>
<path opacity="0.32" d="M215.1 264L212.3 248.5H149.3L146.5 264H215.1Z" fill="#848484"/>
<path d="M222.7 303.4H138.9L149.3 248.5H212.3L222.7 303.4Z" stroke="#444E59" stroke-width="4" stroke-miterlimit="10" stroke-linecap="round" stroke-linejoin="round"/>
<path d="M248.4 303.401H107.6V311.801H248.4V303.401Z" stroke="#444E59" stroke-width="4" stroke-miterlimit="10" stroke-linecap="round" stroke-linejoin="round"/>
<path d="M180.3 229.5C183.724 229.5 186.5 226.724 186.5 223.3C186.5 219.876 183.724 217.1 180.3 217.1C176.876 217.1 174.1 219.876 174.1 223.3C174.1 226.724 176.876 229.5 180.3 229.5Z" fill="#444E59"/>
<path d="M254 178.1H82.2C78.3 178.1 75.2 174.9 75.2 171.1V48.5C75.2 44.6 78.4 41.5 82.2 41.5H254C257.9 41.5 261 44.7 261 48.5V171C261.1 174.9 257.9 178.1 254 178.1Z" fill="white"/>
<path d="M254 178.1H82.2C78.3 178.1 75.2 174.9 75.2 171.1V48.5C75.2 44.6 78.4 41.5 82.2 41.5H254C257.9 41.5 261 44.7 261 48.5V171C261.1 174.9 257.9 178.1 254 178.1Z" stroke="#444E59" stroke-width="4" stroke-miterlimit="10" stroke-linecap="round" stroke-linejoin="round"/>
<path d="M261.1 62.601H75.2V48.801C75.2 44.801 78.5 41.401 82.6 41.401H254.2C258 41.401 261.1 44.501 261.1 48.301V62.601Z" fill="#BBBFC2"/>
<path d="M261.1 62.601H75.2V48.801C75.2 44.801 78.5 41.401 82.6 41.401H254.2C258 41.401 261.1 44.501 261.1 48.301V62.601Z" stroke="#444E59" stroke-width="4" stroke-miterlimit="10" stroke-linecap="round" stroke-linejoin="round"/>
<path d="M93.1 55.4C94.923 55.4 96.4 53.923 96.4 52.1C96.4 50.278 94.923 48.8 93.1 48.8C91.278 48.8 89.8 50.278 89.8 52.1C89.8 53.923 91.278 55.4 93.1 55.4Z" fill="#444E59"/>
<path d="M104 55.4C105.823 55.4 107.3 53.923 107.3 52.1C107.3 50.278 105.823 48.8 104 48.8C102.177 48.8 100.7 50.278 100.7 52.1C100.7 53.923 102.177 55.4 104 55.4Z" fill="#444E59"/>
<path d="M114.8 55.4C116.623 55.4 118.1 53.923 118.1 52.1C118.1 50.278 116.623 48.8 114.8 48.8C112.978 48.8 111.5 50.278 111.5 52.1C111.5 53.923 112.978 55.4 114.8 55.4Z" fill="#444E59"/>
<g filter="url(#filter0_d_2_2)">
<path d="M163.102 87.2299V97.9379H160.048V87.2299H163.102ZM171.11 82.8727V85.046C171.11 85.7061 170.99 86.4104 170.748 87.159C170.515 87.8995 170.169 88.6199 169.71 89.3202C169.259 90.0124 168.712 90.6161 168.068 91.1313L166.522 89.8756C167.029 89.1511 167.468 88.3985 167.838 87.6178C168.217 86.8289 168.406 85.9878 168.406 85.0943V82.8727H171.11ZM177.292 82.8727V85.046C177.292 85.7061 177.171 86.4104 176.93 87.159C176.697 87.8995 176.35 88.6199 175.892 89.3202C175.441 90.0124 174.893 90.6161 174.25 91.1313L172.704 89.8756C173.211 89.1511 173.65 88.3985 174.02 87.6178C174.398 86.8289 174.588 85.9878 174.588 85.0943V82.8727H177.292ZM194.712 96.2777C194.712 94.1859 194.252 92.6254 193.334 91.5961C192.415 90.5668 190.971 90.0522 189.001 90.0522H184.419V95.7963H188.453V98.6186H181.314V87.2299H189.034C192 87.2299 194.203 87.9714 195.641 89.4545C197.091 90.9265 197.816 93.2231 197.816 96.3441V97.7055C197.816 104.302 194.695 107.6 188.453 107.6H181.497V104.778H188.536C190.639 104.778 192.194 104.197 193.201 103.035C194.208 101.861 194.712 100.096 194.712 97.7387V96.2777ZM206.549 104.446C206.172 105.564 205.575 106.371 204.756 106.87C203.937 107.357 202.647 107.6 200.888 107.6H200.705V104.778H200.987C201.751 104.778 202.36 104.634 202.813 104.346C203.256 104.058 203.571 103.621 203.76 103.035C203.948 102.437 204.042 101.535 204.042 100.329V90.0522H200.888V87.2299H211.894C214.949 87.2299 217.14 87.8829 218.469 89.1889C219.797 90.4838 220.461 92.642 220.461 95.6635V107.6H217.406V95.6303C217.406 93.5938 216.991 92.155 216.161 91.3139C215.342 90.4727 213.909 90.0522 211.861 90.0522H207.096V99.7143C207.096 101.751 206.914 103.328 206.549 104.446ZM119.191 145.778V148.6H101.411V145.778H113.929V136.63C113.929 134.594 113.513 133.155 112.683 132.314C111.864 131.473 110.442 131.052 108.417 131.052H102.191V128.23H108.45C111.505 128.23 113.691 128.883 115.008 130.189C116.325 131.495 116.983 133.653 116.983 136.663V145.778H119.191ZM138.565 146.541C137.802 147.051 136.85 147.466 135.71 147.787C134.581 148.107 133.164 148.345 131.46 148.5C129.755 148.655 127.647 148.744 125.135 148.766L121.25 128.23H124.421L126.463 138.705L127.675 138.473C128.339 138.318 128.887 138.119 129.318 137.875C129.75 137.621 130.093 137.267 130.347 136.813C130.558 136.459 130.718 136.022 130.829 135.501C130.94 134.981 131.023 134.361 131.078 133.642L131.493 128.23H134.647L134.133 133.675C134.055 134.594 133.961 135.391 133.85 136.066C133.74 136.73 133.607 137.267 133.452 137.676C133.175 138.506 132.76 139.148 132.207 139.602C131.653 140.045 130.735 140.438 129.451 140.781L126.961 141.362L127.774 145.645H128.173C130.397 145.645 132.179 145.518 133.518 145.263C134.858 144.997 135.915 144.588 136.689 144.035C137.209 143.658 137.647 143.193 138.001 142.64C138.355 142.087 138.654 141.356 138.897 140.449C139.141 139.541 139.346 138.373 139.512 136.946L140.557 128.23H143.762L142.699 136.829C142.478 138.755 142.19 140.343 141.836 141.594C141.482 142.834 141.039 143.841 140.508 144.616C139.987 145.379 139.34 146.021 138.565 146.541ZM161.824 136.63C161.824 134.616 161.415 133.183 160.596 132.33C159.788 131.478 158.365 131.052 156.329 131.052H151.182V148.6H148.128V128.23H156.362C159.417 128.23 161.603 128.883 162.92 130.189C164.237 131.495 164.895 133.653 164.895 136.663V148.6H161.824V136.63ZM173.561 128.23V148.6H170.507V128.23H173.561ZM189.366 127.898C192.044 127.898 193.998 128.717 195.226 130.355C196.466 131.982 197.086 134.572 197.086 138.124V148.6H187.092V145.778H193.998V138.506C193.998 135.795 193.649 133.825 192.952 132.596C192.255 131.368 191.07 130.753 189.399 130.753C187.905 130.753 186.677 131.428 185.714 132.779C184.74 134.151 183.849 136.536 183.041 139.934L180.966 148.6H177.679L179.953 139.685C180.207 138.645 180.468 137.704 180.733 136.863C180.999 136.022 181.259 135.274 181.513 134.621L177.363 128.23H180.966L183.041 131.6C183.904 130.294 184.828 129.353 185.813 128.778C186.798 128.191 187.983 127.898 189.366 127.898ZM212.741 127.898C215.419 127.898 217.373 128.717 218.601 130.355C219.841 131.982 220.461 134.572 220.461 138.124V148.6H210.467V145.778H217.373V138.506C217.373 135.795 217.024 133.825 216.327 132.596C215.63 131.368 214.445 130.753 212.774 130.753C211.28 130.753 210.052 131.428 209.089 132.779C208.115 134.151 207.224 136.536 206.416 139.934L204.341 148.6H201.054L203.328 139.685C203.582 138.645 203.843 137.704 204.108 136.863C204.374 136.022 204.634 135.274 204.888 134.621L200.738 128.23H204.341L206.416 131.6C207.279 130.294 208.203 129.353 209.188 128.778C210.173 128.191 211.358 127.898 212.741 127.898Z" fill="#52B9CD"/>
<path d="M163.102 87.2299H164.102V86.2299H163.102V87.2299ZM163.102 97.9379V98.9379H164.102V97.9379H163.102ZM160.048 97.9379H159.048V98.9379H160.048V97.9379ZM160.048 87.2299V86.2299H159.048V87.2299H160.048ZM162.102 87.2299V97.9379H164.102V87.2299H162.102ZM163.102 96.9379H160.048V98.9379H163.102V96.9379ZM161.048 97.9379V87.2299H159.048V97.9379H161.048ZM160.048 88.2299H163.102V86.2299H160.048V88.2299ZM171.11 82.8727H172.11V81.8727H171.11V82.8727ZM170.748 87.159L169.796 86.8519L169.794 86.8583L170.748 87.159ZM169.71 89.3202L168.873 88.7721L168.872 88.7745L169.71 89.3202ZM168.068 91.1313L167.437 91.9074L168.063 92.4158L168.692 91.9121L168.068 91.1313ZM166.522 89.8756L165.703 89.3021L165.169 90.0647L165.892 90.6517L166.522 89.8756ZM167.838 87.6178L166.937 87.1853L166.935 87.1893L167.838 87.6178ZM168.406 82.8727V81.8727H167.406V82.8727H168.406ZM177.292 82.8727H178.292V81.8727H177.292V82.8727ZM176.93 87.159L175.978 86.8519L175.976 86.8583L176.93 87.159ZM175.892 89.3202L175.055 88.7721L175.054 88.7745L175.892 89.3202ZM174.25 91.1313L173.619 91.9074L174.245 92.4158L174.874 91.9121L174.25 91.1313ZM172.704 89.8756L171.885 89.3021L171.351 90.0647L172.074 90.6517L172.704 89.8756ZM174.02 87.6178L173.118 87.1853L173.117 87.1893L174.02 87.6178ZM174.588 82.8727V81.8727H173.588V82.8727H174.588ZM170.11 82.8727V85.046H172.11V82.8727H170.11ZM170.11 85.046C170.11 85.5841 170.012 86.1841 169.796 86.852L171.7 87.466C171.967 86.6366 172.11 85.828 172.11 85.046H170.11ZM169.794 86.8583C169.591 87.5048 169.286 88.1426 168.873 88.7721L170.546 89.8682C171.051 89.0972 171.439 88.2941 171.702 87.4596L169.794 86.8583ZM168.872 88.7745C168.479 89.3776 168.004 89.9019 167.443 90.3504L168.692 91.9121C169.42 91.3303 170.039 90.6472 170.548 89.8658L168.872 88.7745ZM168.698 90.3551L167.153 89.0995L165.892 90.6517L167.437 91.9074L168.698 90.3551ZM167.342 90.449C167.88 89.6798 168.347 88.8788 168.742 88.0462L166.935 87.1893C166.589 87.9183 166.179 88.6225 165.703 89.3021L167.342 90.449ZM168.74 88.0502C169.184 87.1235 169.406 86.1342 169.406 85.0943H167.406C167.406 85.8414 167.249 86.5344 166.937 87.1853L168.74 88.0502ZM169.406 85.0943V82.8727H167.406V85.0943H169.406ZM168.406 83.8727H171.11V81.8727H168.406V83.8727ZM176.292 82.8727V85.046H178.292V82.8727H176.292ZM176.292 85.046C176.292 85.5841 176.194 86.1841 175.978 86.852L177.882 87.466C178.149 86.6366 178.292 85.828 178.292 85.046H176.292ZM175.976 86.8583C175.772 87.5048 175.468 88.1426 175.055 88.7722L176.728 89.8682C177.233 89.0972 177.621 88.2941 177.884 87.4596L175.976 86.8583ZM175.054 88.7745C174.661 89.3776 174.185 89.9019 173.625 90.3504L174.874 91.9121C175.602 91.3303 176.221 90.6472 176.73 89.8658L175.054 88.7745ZM174.88 90.3551L173.335 89.0995L172.074 90.6517L173.619 91.9074L174.88 90.3551ZM173.523 90.449C174.062 89.6798 174.529 88.8788 174.924 88.0462L173.117 87.1893C172.771 87.9183 172.361 88.6225 171.885 89.3021L173.523 90.449ZM174.922 88.0502C175.366 87.1235 175.588 86.1342 175.588 85.0943H173.588C173.588 85.8414 173.431 86.5344 173.118 87.1853L174.922 88.0502ZM175.588 85.0943V82.8727H173.588V85.0943H175.588ZM174.588 83.8727H177.292V81.8727H174.588V83.8727ZM184.419 90.0522V89.0522H183.419V90.0522H184.419ZM184.419 95.7963H183.419V96.7963H184.419V95.7963ZM188.453 95.7963H189.453V94.7963H188.453V95.7963ZM188.453 98.6186V99.6186H189.453V98.6186H188.453ZM181.314 98.6186H180.314V99.6186H181.314V98.6186ZM181.314 87.2299V86.2299H180.314V87.2299H181.314ZM195.641 89.4545L194.924 90.1508L194.929 90.1562L195.641 89.4545ZM181.497 107.6H180.497V108.6H181.497V107.6ZM181.497 104.778V103.778H180.497V104.778H181.497ZM193.201 103.035L193.957 103.69L193.96 103.686L193.201 103.035ZM195.712 96.2777C195.712 94.063 195.229 92.2173 194.08 90.9302L192.588 92.262C193.276 93.0335 193.712 94.3088 193.712 96.2777H195.712ZM194.08 90.9302C192.902 89.6101 191.131 89.0522 189.001 89.0522V91.0522C190.811 91.0522 191.929 91.5235 192.588 92.262L194.08 90.9302ZM189.001 89.0522H184.419V91.0522H189.001V89.0522ZM183.419 90.0522V95.7963H185.419V90.0522H183.419ZM184.419 96.7963H188.453V94.7963H184.419V96.7963ZM187.453 95.7963V98.6186H189.453V95.7963H187.453ZM188.453 97.6186H181.314V99.6186H188.453V97.6186ZM182.314 98.6186V87.2299H180.314V98.6186H182.314ZM181.314 88.2299H189.034V86.2299H181.314V88.2299ZM189.034 88.2299C191.849 88.2299 193.742 88.9333 194.924 90.1508L196.359 88.7582C194.663 87.0096 192.152 86.2299 189.034 86.2299V88.2299ZM194.929 90.1562C196.119 91.3645 196.816 93.3538 196.816 96.3441H198.816C198.816 93.0923 198.063 90.4885 196.354 88.7528L194.929 90.1562ZM196.816 96.3441V97.7055H198.816V96.3441H196.816ZM196.816 97.7055C196.816 100.863 196.068 103.045 194.749 104.439C193.44 105.823 191.405 106.6 188.453 106.6V108.6C191.743 108.6 194.39 107.728 196.202 105.814C198.004 103.91 198.816 101.144 198.816 97.7055H196.816ZM188.453 106.6H181.497V108.6H188.453V106.6ZM182.497 107.6V104.778H180.497V107.6H182.497ZM181.497 105.778H188.536V103.778H181.497V105.778ZM188.536 105.778C190.817 105.778 192.697 105.143 193.957 103.69L192.445 102.38C191.691 103.25 190.46 103.778 188.536 103.778V105.778ZM193.96 103.686C195.186 102.257 195.712 100.215 195.712 97.7387H193.712C193.712 99.9776 193.23 101.466 192.442 102.383L193.96 103.686ZM195.712 97.7387V96.2777H193.712V97.7387H195.712ZM206.549 104.446L207.496 104.765L207.499 104.756L206.549 104.446ZM204.756 106.87L205.267 107.729L205.275 107.724L204.756 106.87ZM200.705 107.6H199.705V108.6H200.705V107.6ZM200.705 104.778V103.778H199.705V104.778H200.705ZM202.813 104.346L203.349 105.191L203.358 105.185L202.813 104.346ZM203.76 103.035L204.712 103.34L204.713 103.335L203.76 103.035ZM204.042 90.0522H205.042V89.0522H204.042V90.0522ZM200.888 90.0522H199.888V91.0522H200.888V90.0522ZM200.888 87.2299V86.2299H199.888V87.2299H200.888ZM218.469 89.1889L217.767 89.9019L217.77 89.9049L218.469 89.1889ZM220.461 107.6V108.6H221.461V107.6H220.461ZM217.406 107.6H216.406V108.6H217.406V107.6ZM216.161 91.3139L215.444 92.0115L215.449 92.0163L216.161 91.3139ZM207.096 90.0522V89.0522H206.096V90.0522H207.096ZM205.601 104.127C205.282 105.074 204.81 105.666 204.236 106.015L205.275 107.724C206.339 107.077 207.063 106.053 207.496 104.765L205.601 104.127ZM204.245 106.01C203.663 106.356 202.597 106.6 200.888 106.6V108.6C202.698 108.6 204.211 108.357 205.267 107.729L204.245 106.01ZM200.888 106.6H200.705V108.6H200.888V106.6ZM201.705 107.6V104.778H199.705V107.6H201.705ZM200.705 105.778H200.987V103.778H200.705V105.778ZM200.987 105.778C201.864 105.778 202.681 105.614 203.349 105.191L202.278 103.502C202.038 103.654 201.637 103.778 200.987 103.778V105.778ZM203.358 105.185C204.025 104.751 204.466 104.108 204.712 103.34L202.807 102.729C202.677 103.135 202.487 103.366 202.268 103.508L203.358 105.185ZM204.713 103.335C204.949 102.587 205.042 101.561 205.042 100.329H203.042C203.042 101.509 202.947 102.286 202.806 102.734L204.713 103.335ZM205.042 100.329V90.0522H203.042V100.329H205.042ZM204.042 89.0522H200.888V91.0522H204.042V89.0522ZM201.888 90.0522V87.2299H199.888V90.0522H201.888ZM200.888 88.2299H211.894V86.2299H200.888V88.2299ZM211.894 88.2299C214.846 88.2299 216.715 88.8675 217.767 89.9019L219.17 88.4758C217.565 86.8983 215.052 86.2299 211.894 86.2299V88.2299ZM217.77 89.9049C218.814 90.9223 219.461 92.7491 219.461 95.6635H221.461C221.461 92.5349 220.779 90.0453 219.167 88.4729L217.77 89.9049ZM219.461 95.6635V107.6H221.461V95.6635H219.461ZM220.461 106.6H217.406V108.6H220.461V106.6ZM218.406 107.6V95.6303H216.406V107.6H218.406ZM218.406 95.6303C218.406 93.5077 217.983 91.7362 216.873 90.6115L215.449 92.0163C215.999 92.5739 216.406 93.6799 216.406 95.6303H218.406ZM216.877 90.6163C215.771 89.4798 213.992 89.0522 211.861 89.0522V91.0522C213.826 91.0522 214.913 91.4656 215.444 92.0115L216.877 90.6163ZM211.861 89.0522H207.096V91.0522H211.861V89.0522ZM206.096 90.0522V99.7143H208.096V90.0522H206.096ZM206.096 99.7143C206.096 101.71 205.915 103.165 205.598 104.135L207.499 104.756C207.913 103.491 208.096 101.791 208.096 99.7143H206.096ZM119.191 145.778H120.191V144.778H119.191V145.778ZM119.191 148.6V149.6H120.191V148.6H119.191ZM101.411 148.6H100.411V149.6H101.411V148.6ZM101.411 145.778V144.778H100.411V145.778H101.411ZM113.929 145.778V146.778H114.929V145.778H113.929ZM112.683 132.314L111.967 133.012L111.972 133.016L112.683 132.314ZM102.191 131.052H101.191V132.052H102.191V131.052ZM102.191 128.23V127.23H101.191V128.23H102.191ZM116.983 145.778H115.983V146.778H116.983V145.778ZM118.191 145.778V148.6H120.191V145.778H118.191ZM119.191 147.6H101.411V149.6H119.191V147.6ZM102.411 148.6V145.778H100.411V148.6H102.411ZM101.411 146.778H113.929V144.778H101.411V146.778ZM114.929 145.778V136.63H112.929V145.778H114.929ZM114.929 136.63C114.929 134.508 114.505 132.736 113.395 131.611L111.972 133.016C112.522 133.574 112.929 134.68 112.929 136.63H114.929ZM113.4 131.616C112.295 130.481 110.529 130.052 108.417 130.052V132.052C110.355 132.052 111.434 132.464 111.967 133.011L113.4 131.616ZM108.417 130.052H102.191V132.052H108.417V130.052ZM103.191 131.052V128.23H101.191V131.052H103.191ZM102.191 129.23H108.45V127.23H102.191V129.23ZM108.45 129.23C111.403 129.23 113.264 129.868 114.304 130.899L115.712 129.479C114.117 127.898 111.606 127.23 108.45 127.23V129.23ZM114.304 130.899C115.342 131.929 115.983 133.761 115.983 136.663H117.983C117.983 133.546 117.307 131.061 115.712 129.479L114.304 130.899ZM115.983 136.663V145.778H117.983V136.663H115.983ZM116.983 146.778H119.191V144.778H116.983V146.778ZM138.565 146.541L139.12 147.373L139.123 147.372L138.565 146.541ZM135.71 147.787L135.439 146.824L135.436 146.825L135.71 147.787ZM131.46 148.5L131.369 147.505L131.46 148.5ZM125.135 148.766L124.152 148.952L124.307 149.773L125.143 149.766L125.135 148.766ZM121.25 128.23V127.23H120.043L120.267 128.416L121.25 128.23ZM124.421 128.23L125.402 128.039L125.245 127.23H124.421V128.23ZM126.463 138.705L125.481 138.897L125.672 139.875L126.651 139.688L126.463 138.705ZM127.675 138.473L127.863 139.455L127.882 139.451L127.902 139.447L127.675 138.473ZM129.318 137.875L129.809 138.746L129.818 138.742L129.826 138.737L129.318 137.875ZM130.347 136.813L129.488 136.302L129.481 136.313L129.475 136.324L130.347 136.813ZM131.078 133.642L132.075 133.719L132.075 133.718L131.078 133.642ZM131.493 128.23V127.23H130.567L130.496 128.153L131.493 128.23ZM134.647 128.23L135.643 128.324L135.746 127.23H134.647V128.23ZM134.133 133.675L133.137 133.581L133.136 133.591L134.133 133.675ZM133.85 136.066L134.837 136.23L134.837 136.228L133.85 136.066ZM133.452 137.676L132.517 137.322L132.51 137.341L132.503 137.36L133.452 137.676ZM132.207 139.602L132.832 140.383L132.841 140.375L132.207 139.602ZM129.451 140.781L129.678 141.755L129.694 141.751L129.709 141.747L129.451 140.781ZM126.961 141.362L126.734 140.388L125.799 140.606L125.978 141.548L126.961 141.362ZM127.774 145.645L126.792 145.832L126.946 146.645H127.774V145.645ZM133.518 145.263L133.705 146.246L133.713 146.244L133.518 145.263ZM136.689 144.035L137.271 144.848L137.275 144.845L136.689 144.035ZM138.897 140.449L137.931 140.19L138.897 140.449ZM139.512 136.946L138.519 136.827L138.518 136.83L139.512 136.946ZM140.557 128.23V127.23H139.67L139.565 128.111L140.557 128.23ZM143.762 128.23L144.754 128.353L144.893 127.23H143.762V128.23ZM142.699 136.829L141.707 136.707L141.706 136.715L142.699 136.829ZM141.836 141.594L142.797 141.869L142.798 141.867L141.836 141.594ZM140.508 144.616L139.683 144.05L139.681 144.053L140.508 144.616ZM138.011 145.709C137.355 146.146 136.506 146.524 135.439 146.824L135.981 148.749C137.194 148.408 138.248 147.955 139.12 147.373L138.011 145.709ZM135.436 146.825C134.388 147.123 133.037 147.353 131.369 147.505L131.55 149.496C133.291 149.338 134.774 149.092 135.983 148.748L135.436 146.825ZM131.369 147.505C129.701 147.656 127.622 147.744 125.126 147.766L125.143 149.766C127.672 149.744 129.809 149.655 131.55 149.496L131.369 147.505ZM126.117 148.58L122.232 128.044L120.267 128.416L124.152 148.952L126.117 148.58ZM121.25 129.23H124.421V127.23H121.25V129.23ZM123.439 128.421L125.481 138.897L127.444 138.514L125.402 128.039L123.439 128.421ZM126.651 139.688L127.863 139.455L127.486 137.491L126.274 137.723L126.651 139.688ZM127.902 139.447C128.626 139.278 129.271 139.05 129.809 138.746L128.827 137.004C128.502 137.187 128.051 137.358 127.447 137.499L127.902 139.447ZM129.826 138.737C130.416 138.389 130.882 137.904 131.22 137.302L129.475 136.324C129.304 136.63 129.084 136.853 128.81 137.014L129.826 138.737ZM131.207 137.323C131.487 136.853 131.68 136.307 131.807 135.709L129.851 135.293C129.757 135.736 129.629 136.065 129.488 136.302L131.207 137.323ZM131.807 135.709C131.93 135.134 132.017 134.468 132.075 133.719L130.081 133.565C130.028 134.255 129.95 134.829 129.851 135.293L131.807 135.709ZM132.075 133.718L132.49 128.306L130.496 128.153L130.081 133.566L132.075 133.718ZM131.493 129.23H134.647V127.23H131.493V129.23ZM133.652 128.136L133.137 133.581L135.128 133.769L135.643 128.324L133.652 128.136ZM133.136 133.591C133.06 134.492 132.969 135.262 132.864 135.904L134.837 136.228C134.953 135.52 135.05 134.696 135.129 133.759L133.136 133.591ZM132.864 135.901C132.759 136.531 132.64 136.998 132.517 137.322L134.387 138.03C134.574 137.536 134.72 136.928 134.837 136.23L132.864 135.901ZM132.503 137.36C132.273 138.051 131.951 138.519 131.573 138.829L132.841 140.375C133.57 139.778 134.078 138.961 134.401 137.992L132.503 137.36ZM131.582 138.821C131.194 139.131 130.44 139.481 129.193 139.815L129.709 141.747C131.03 141.394 132.113 140.958 132.832 140.383L131.582 138.821ZM129.224 139.807L126.734 140.388L127.188 142.336L129.678 141.755L129.224 139.807ZM125.978 141.548L126.792 145.832L128.757 145.458L127.943 141.175L125.978 141.548ZM127.774 146.645H128.173V144.645H127.774V146.645ZM128.173 146.645C130.426 146.645 132.278 146.517 133.705 146.245L133.332 144.281C132.08 144.519 130.369 144.645 128.173 144.645V146.645ZM133.713 146.244C135.135 145.962 136.341 145.512 137.271 144.848L136.108 143.221C135.488 143.664 134.58 144.033 133.324 144.282L133.713 146.244ZM137.275 144.845C137.9 144.393 138.423 143.836 138.843 143.179L137.159 142.101C136.87 142.551 136.519 142.923 136.103 143.224L137.275 144.845ZM138.843 143.179C139.271 142.511 139.603 141.676 139.863 140.708L137.931 140.19C137.704 141.037 137.439 141.662 137.159 142.101L138.843 143.179ZM139.863 140.708C140.124 139.735 140.336 138.515 140.505 137.061L138.518 136.83C138.355 138.232 138.158 139.347 137.931 140.19L139.863 140.708ZM140.504 137.065L141.55 128.349L139.565 128.111L138.519 136.827L140.504 137.065ZM140.557 129.23H143.762V127.23H140.557V129.23ZM142.769 128.107L141.707 136.707L143.691 136.952L144.754 128.353L142.769 128.107ZM141.706 136.715C141.488 138.611 141.208 140.141 140.874 141.322L142.798 141.867C143.172 140.546 143.468 138.9 143.692 136.944L141.706 136.715ZM140.874 141.319C140.539 142.491 140.135 143.391 139.683 144.05L141.332 145.181C141.943 144.291 142.424 143.176 142.797 141.869L140.874 141.319ZM139.681 144.053C139.234 144.71 138.678 145.261 138.008 145.711L139.123 147.372C140.002 146.781 140.741 146.049 141.334 145.179L139.681 144.053ZM160.596 132.33L159.87 133.018L159.875 133.023L160.596 132.33ZM151.182 131.052V130.052H150.182V131.052H151.182ZM151.182 148.6V149.6H152.182V148.6H151.182ZM148.128 148.6H147.128V149.6H148.128V148.6ZM148.128 128.23V127.23H147.128V128.23H148.128ZM162.92 130.189L163.624 129.479L162.92 130.189ZM164.895 148.6V149.6H165.895V148.6H164.895ZM161.824 148.6H160.824V149.6H161.824V148.6ZM162.824 136.63C162.824 134.527 162.405 132.77 161.317 131.638L159.875 133.023C160.424 133.595 160.824 134.705 160.824 136.63H162.824ZM161.321 131.642C160.225 130.486 158.451 130.052 156.329 130.052V132.052C158.28 132.052 159.35 132.47 159.87 133.018L161.321 131.642ZM156.329 130.052H151.182V132.052H156.329V130.052ZM150.182 131.052V148.6H152.182V131.052H150.182ZM151.182 147.6H148.128V149.6H151.182V147.6ZM149.128 148.6V128.23H147.128V148.6H149.128ZM148.128 129.23H156.362V127.23H148.128V129.23ZM156.362 129.23C159.315 129.23 161.176 129.868 162.216 130.899L163.624 129.479C162.029 127.898 159.519 127.23 156.362 127.23V129.23ZM162.216 130.899C163.254 131.929 163.895 133.761 163.895 136.663H165.895C165.895 133.546 165.219 131.061 163.624 129.479L162.216 130.899ZM163.895 136.663V148.6H165.895V136.663H163.895ZM164.895 147.6H161.824V149.6H164.895V147.6ZM162.824 148.6V136.63H160.824V148.6H162.824ZM173.561 128.23H174.561V127.23H173.561V128.23ZM173.561 148.6V149.6H174.561V148.6H173.561ZM170.507 148.6H169.507V149.6H170.507V148.6ZM170.507 128.23V127.23H169.507V128.23H170.507ZM172.561 128.23V148.6H174.561V128.23H172.561ZM173.561 147.6H170.507V149.6H173.561V147.6ZM171.507 148.6V128.23H169.507V148.6H171.507ZM170.507 129.23H173.561V127.23H170.507V129.23ZM195.226 130.355L194.426 130.955L194.431 130.961L195.226 130.355ZM197.086 148.6V149.6H198.086V148.6H197.086ZM187.092 148.6H186.092V149.6H187.092V148.6ZM187.092 145.778V144.778H186.092V145.778H187.092ZM193.998 145.778V146.778H194.998V145.778H193.998ZM185.714 132.779L184.899 132.198L184.898 132.2L185.714 132.779ZM183.041 139.934L184.013 140.167L184.014 140.165L183.041 139.934ZM180.966 148.6V149.6H181.754L181.938 148.833L180.966 148.6ZM177.679 148.6L176.71 148.353L176.391 149.6H177.679V148.6ZM179.953 139.685L180.922 139.932L180.924 139.923L179.953 139.685ZM181.513 134.621L182.445 134.985L182.631 134.507L182.352 134.077L181.513 134.621ZM177.363 128.23V127.23H175.521L176.524 128.774L177.363 128.23ZM180.966 128.23L181.817 127.706L181.524 127.23H180.966V128.23ZM183.041 131.6L182.189 132.124L183.011 133.459L183.875 132.151L183.041 131.6ZM185.813 128.778L186.318 129.641L186.325 129.637L185.813 128.778ZM189.366 128.898C191.836 128.898 193.442 129.643 194.426 130.955L196.026 129.755C194.553 127.791 192.253 126.898 189.366 126.898V128.898ZM194.431 130.961C195.471 132.326 196.086 134.646 196.086 138.124H198.086C198.086 134.497 197.461 131.638 196.022 129.749L194.431 130.961ZM196.086 138.124V148.6H198.086V138.124H196.086ZM197.086 147.6H187.092V149.6H197.086V147.6ZM188.092 148.6V145.778H186.092V148.6H188.092ZM187.092 146.778H193.998V144.778H187.092V146.778ZM194.998 145.778V138.506H192.998V145.778H194.998ZM194.998 138.506C194.998 135.754 194.652 133.565 193.822 132.102L192.082 133.09C192.647 134.084 192.998 135.835 192.998 138.506H194.998ZM193.822 132.102C192.911 130.498 191.352 129.753 189.399 129.753V131.753C190.789 131.753 191.598 132.237 192.082 133.09L193.822 132.102ZM189.399 129.753C187.543 129.753 186.026 130.618 184.899 132.198L186.528 133.359C187.327 132.239 188.268 131.753 189.399 131.753V129.753ZM184.898 132.2C183.806 133.739 182.881 136.285 182.068 139.703L184.014 140.165C184.817 136.787 185.673 134.563 186.529 133.357L184.898 132.2ZM182.068 139.701L179.993 148.367L181.938 148.833L184.013 140.167L182.068 139.701ZM180.966 147.6H177.679V149.6H180.966V147.6ZM178.647 148.847L180.922 139.932L178.984 139.438L176.71 148.353L178.647 148.847ZM180.924 139.923C181.175 138.899 181.429 137.98 181.687 137.164L179.78 136.562C179.506 137.428 179.24 138.39 178.982 139.447L180.924 139.923ZM181.687 137.164C181.947 136.339 182.2 135.613 182.445 134.985L180.582 134.258C180.318 134.936 180.05 135.705 179.78 136.562L181.687 137.164ZM182.352 134.077L178.202 127.685L176.524 128.774L180.675 135.166L182.352 134.077ZM177.363 129.23H180.966V127.23H177.363V129.23ZM180.114 128.754L182.189 132.124L183.892 131.076L181.817 127.706L180.114 128.754ZM183.875 132.151C184.684 130.928 185.505 130.116 186.318 129.641L185.309 127.914C184.152 128.59 183.125 129.66 182.207 131.049L183.875 132.151ZM186.325 129.637C187.126 129.16 188.125 128.898 189.366 128.898V126.898C187.84 126.898 186.471 127.222 185.302 127.919L186.325 129.637ZM218.601 130.355L217.801 130.955L217.806 130.961L218.601 130.355ZM220.461 148.6V149.6H221.461V148.6H220.461ZM210.467 148.6H209.467V149.6H210.467V148.6ZM210.467 145.778V144.778H209.467V145.778H210.467ZM217.373 145.778V146.778H218.373V145.778H217.373ZM209.089 132.779L208.274 132.198L208.273 132.2L209.089 132.779ZM206.416 139.934L207.388 140.167L207.389 140.165L206.416 139.934ZM204.341 148.6V149.6H205.129L205.313 148.833L204.341 148.6ZM201.054 148.6L200.085 148.353L199.766 149.6H201.054V148.6ZM203.328 139.685L204.297 139.932L204.299 139.923L203.328 139.685ZM204.888 134.621L205.82 134.985L206.006 134.507L205.727 134.077L204.888 134.621ZM200.738 128.23V127.23H198.896L199.899 128.774L200.738 128.23ZM204.341 128.23L205.192 127.706L204.899 127.23H204.341V128.23ZM206.416 131.6L205.564 132.124L206.386 133.459L207.25 132.151L206.416 131.6ZM209.188 128.778L209.693 129.641L209.7 129.637L209.188 128.778ZM212.741 128.898C215.211 128.898 216.817 129.643 217.801 130.955L219.401 129.755C217.928 127.791 215.628 126.898 212.741 126.898V128.898ZM217.806 130.961C218.846 132.326 219.461 134.646 219.461 138.124H221.461C221.461 134.497 220.836 131.638 219.397 129.749L217.806 130.961ZM219.461 138.124V148.6H221.461V138.124H219.461ZM220.461 147.6H210.467V149.6H220.461V147.6ZM211.467 148.6V145.778H209.467V148.6H211.467ZM210.467 146.778H217.373V144.778H210.467V146.778ZM218.373 145.778V138.506H216.373V145.778H218.373ZM218.373 138.506C218.373 135.754 218.027 133.565 217.197 132.102L215.457 133.09C216.022 134.084 216.373 135.835 216.373 138.506H218.373ZM217.197 132.102C216.286 130.498 214.727 129.753 212.774 129.753V131.753C214.164 131.753 214.973 132.237 215.457 133.09L217.197 132.102ZM212.774 129.753C210.918 129.753 209.401 130.618 208.274 132.198L209.903 133.359C210.702 132.239 211.643 131.753 212.774 131.753V129.753ZM208.273 132.2C207.181 133.739 206.256 136.285 205.443 139.703L207.389 140.165C208.192 136.787 209.048 134.563 209.904 133.357L208.273 132.2ZM205.443 139.701L203.368 148.367L205.313 148.833L207.388 140.167L205.443 139.701ZM204.341 147.6H201.054V149.6H204.341V147.6ZM202.022 148.847L204.297 139.932L202.359 139.438L200.085 148.353L202.022 148.847ZM204.299 139.923C204.55 138.899 204.804 137.98 205.062 137.164L203.155 136.562C202.881 137.428 202.615 138.39 202.357 139.447L204.299 139.923ZM205.062 137.164C205.322 136.339 205.575 135.613 205.82 134.985L203.957 134.258C203.693 134.936 203.425 135.705 203.155 136.562L205.062 137.164ZM205.727 134.077L201.577 127.685L199.899 128.774L204.05 135.166L205.727 134.077ZM200.738 129.23H204.341V127.23H200.738V129.23ZM203.489 128.754L205.564 132.124L207.267 131.076L205.192 127.706L203.489 128.754ZM207.25 132.151C208.059 130.928 208.88 130.116 209.693 129.641L208.684 127.914C207.527 128.59 206.5 129.66 205.582 131.049L207.25 132.151ZM209.7 129.637C210.501 129.16 211.5 128.898 212.741 128.898V126.898C211.215 126.898 209.846 127.222 208.677 127.919L209.7 129.637Z" fill="black"/>
</g>
<defs>
<filter id="filter0_d_2_2" x="97.4109" y="82.8727" width="127.05" height="73.8933" filterUnits="userSpaceOnUse" color-interpolation-filters="sRGB">
<feFlood flood-opacity="0" result="BackgroundImageFix"/>
<feColorMatrix in="SourceAlpha" type="matrix" values="0 0 0 0 0 0 0 0 0 0 0 0 0 0 0 0 0 0 127 0" result="hardAlpha"/>
<feOffset dy="4"/>
<feGaussianBlur stdDeviation="2"/>
<feComposite in2="hardAlpha" operator="out"/>
<feColorMatrix type="matrix" values="0 0 0 0 0 0 0 0 0 0 0 0 0 0 0 0 0 0 0.25 0"/>
<feBlend mode="normal" in2="BackgroundImageFix" result="effect1_dropShadow_2_2"/>
<feBlend mode="normal" in="SourceGraphic" in2="effect1_dropShadow_2_2" result="shape"/>
</filter>
</defs>
</svg>
